# xmcd
#
# Track frame offsets: 
#        150
#        4805
#        24335
#        42837
#        56328
#        71148
#        88076
#        106317
#        118925
#        133987
#        148659
#        164446
#
# Disc length: 2454 seconds
#
# Revision: 0
# Processed by: cddbd v1.5.2PL0 Copyright (c) Steve Scherf et al.
# Submitted via: ExactAudioCopy v1.0b1
#
DISCID=a909940c
DTITLE=Luke Wade and No Civilians - Tomorrows Ghosts
DYEAR=2010
DGENRE=Soul, Blues, Rock
TTITLE0=Holes in the Sky
TTITLE1=Normal Love
TTITLE2=Strangest Angels
TTITLE3=Faith Pt.1
TTITLE4=This Fire
TTITLE5=Quiet as You Can
TTITLE6=Open Ocean
TTITLE7=Changes
TTITLE8=Save Her
TTITLE9=Forever Never
TTITLE10=The Waltz
TTITLE11=Ghost on a Wire
EXTD=
EXTT0=
EXTT1=
EXTT2=
EXTT3=
EXTT4=
EXTT5=
EXTT6=
EXTT7=
EXTT8=
EXTT9=
EXTT10=
EXTT11=
PLAYORDER=
